<svg width="210" height="200" viewbox="0 0 210 200" xmlns="http://www.w3.org/2000/svg">
 <g>
  <title>Logo</title>
  <g id="svg_8">
   <text transform="matrix(2.04718 0 0 2.15385 -360.23 -419.423)" stroke="#000" font-style="normal" font-weight="normal" xml:space="preserve" text-anchor="start" font-family="serif" font-size="24" id="svg_1" y="282.35734" x="177.91788" stroke-width="0" fill="#ffff">Bono Fast</text>
   <path stroke="#000" id="svg_7" d="m104.6449,-0.29276c-34.79426,0 -62.99999,28.20536 -62.99999,62.99998c0,34.7939 28.20573,63.00001 62.99999,63.00001c34.79467,0 63,-28.20611 63,-63.00001c0,-34.79462 -28.20533,-62.99998 -63,-62.99998zm5.44016,97.15642l0,8.87371l-8.48725,0l0,-8.77372c-13.92738,-1.90734 -20.03057,-13.35071 -20.03057,-13.35071l8.67817,-7.2516c0,0 5.53111,9.63601 15.54419,9.63601c5.53067,0 9.7269,-2.96058 9.7269,-8.01548c0,-11.82858 -31.85547,-10.39423 -31.85547,-32.33177c0,-9.53684 7.53354,-16.40728 17.93227,-18.02781l0,-8.87282l8.4876,0l0,8.86791c7.24751,0.95408 15.83019,4.76878 15.83019,12.97373l0,6.29413l-11.25318,0l0,-3.05151c0,-3.14674 -4.00945,-5.24512 -8.49133,-5.24512c-5.72166,0 -9.91792,2.86071 -9.91792,6.86635c0,12.11064 31.85546,9.15486 31.85546,32.14165c0.00455,9.44496 -7.05232,17.64656 -18.01906,19.26706l0,-0.00001z" stroke-width="0" fill="#ffff"/>
  </g>
 </g>
</svg>